<?xml version="1.0" encoding="utf-8"?>
<!-- Generator: Adobe Illustrator 24.2.3, SVG Export Plug-In . SVG Version: 6.00 Build 0)  -->
<svg version="1.1" id="logo" xmlns="http://www.w3.org/2000/svg" xmlns:xlink="http://www.w3.org/1999/xlink" x="0px" y="0px"
	 viewBox="0 0 152 29" style="enable-background:new 0 0 152 29;" xml:space="preserve">
<style type="text/css">
	.st0{fill:#070405;}
</style>
<path class="st0" d="M148.9,1.9c0-0.1,0-0.1,0-0.2c-0.1,0.1-0.2,0.1-0.3,0.2c0-0.1,0-0.1,0-0.2c-0.4-0.3-0.2,0-0.4-0.5
	c-0.6,0.2-1.2-0.1-1.8,0c-0.9,0.2-1.4,0.7-2.1,0.9c-0.3-0.5-0.5-0.6-0.7-1.2c-0.1,0.2-0.1,0.2-0.2,0.5c-0.5-0.1-1-0.2-1.2,0
	c-0.4-0.3-0.2,0-0.3-0.5c-0.4,0.5-0.2,0.6-0.2,1.2c-0.5,0.1-0.3,0.1-0.7,0c0.4,1.2,0,3.1,0.2,4c0.2,1.5,0.9,3.6,1.1,5
	c0.2,0,0.4,0,0.5,0c0.1,0.4,0.1,0.8,0.2,1.2c0.4,0.1,0.3,0,0.5,0.2c0.4,0.3,0.2,0,0.4,0.5c0.2-0.1,0.4-0.2,0.5-0.4
	c0.3,0.3,0.7,0.7,0.9,1.1C149.9,12.6,151.6,5.1,148.9,1.9z M145.4,10.3c-0.5-0.3-1.1-4.6-1.1-4.6c0.7-0.2,1.4-0.4,1.9-0.9
	C147.2,6.4,145.7,8.1,145.4,10.3z"/>
<path class="st0" d="M7.4,13.4c0.2,0,0.3,0,0.5,0c0.2-0.7,0.2-0.7,0.9-0.9c0.1-1,3.9-5.9,4.7-6.7c0.2,0.3,0.8,0.2,1.9,0.2
	c0,0.7,0.1,0.7,0.7,1.2c-0.3,0.7-1.5,3-2.1,3.3c-0.2,0-0.1-0.1-0.2,0c-0.4,0.5-0.6,1.5-1.1,1.9c-0.2-0.1-0.4-0.1-0.5-0.2
	c-0.3,0.3-1.5,2.3-1.6,3c-0.2,0-0.5,0-0.7,0c-0.2,1.1-0.8,1.4-1.1,2.6c1.1,0.8,2.7,2.4,3,4c0.2,0,0.4,0,0.5,0
	c0.7,1.2,1.8,2.3,2.3,3.7c-0.2,0.3-0.3,0.7-0.4,1.1c-0.6,0-0.8,0.1-1.6,0c0,0.5-1.4-0.2-2.2-1.3c-0.7-1-0.9-2.2-1.6-3.2
	c-0.6-0.8-1.5-1.2-1.9-2.3c-0.3,0.2-0.1,0.2-0.5,0.3c-0.5-1.2-1.5-0.4-1.6-2.3c-0.1,0-0.1,0-0.2,0c0,2.1,0.1,5.2-0.4,7.3
	c-0.3,0.2-0.5,0.2-0.7,0.5c-0.8-0.1-1.4-0.3-2.1,0c-0.3-4,0.4-10.6,1.3-14.7c-0.4-0.2-0.1,0.1-0.4-0.3C3,9.9,2.6,8.1,2.7,7.1
	c0.1-1.2-0.2-3.6,1.4-4c0.4,0.4,0.7,0.2,1.4,0.4c0.2,0.6,0.6,0.7,0.7,1.1c0,1,0,2,0,3C5.7,8.3,5.9,9.7,6,10.4
	c-0.7,1.9-0.8,4.6-0.9,6.6c0.1,0,0.2,0,0.4,0C5.8,15.4,7.1,14.9,7.4,13.4z"/>
<path class="st0" d="M137.5,12c0.1-0.4,0-0.3,0.2-0.5c0.3,0.5,0.5,0.3,1.1,0.2c0.3,0.8,1.5,1.5,1.1,2.5c-0.3,1.3-1.3,1.5-1.9,2.3
	c-0.5,0.6-0.6,1.3-1,1.9c-0.3-0.1-0.1-0.1-0.5,0c0.3,1.4-1.9,2.8-2.3,4.4c0.4,0,0.7,0,1.1,0c0.1,0.4,0,0.3,0.2,0.5
	c0.3-0.4,2.2-0.1,2.3,0c0.4,0.4,0.8,0.9,0.9,1.6c-0.1,0.1-0.1,0.1-0.2,0.2c-0.2,0-0.4,0-0.5,0c-0.1,0.4,0,0.3-0.2,0.5
	c-0.3,0.2-0.7,0.2-1.2,0.2c-0.1,0.6,0.1,0.3-0.3,0.5c-0.9-0.5-2.6-0.6-3.9-1.1c-0.5-0.2-1.3-0.6-1.4-0.5c-0.4,0.6-0.2,1.7-0.4,2.1
	c-0.1,0.4-0.2,0.4-0.3,0.7c-0.3-0.1-0.3-0.5-0.5-0.2c-0.1,0-0.1,0-0.2,0c0.1,0.2,0.2,0.4,0.4,0.5c-0.1,0-0.2,0-0.4,0
	c-0.2,0.1-0.2,0.1-0.5,0.2c0.1-0.4,0.2-0.2,0-0.5c-0.1,0.1-0.2,0.2-0.4,0.4c-0.2-0.5-0.7-0.6-1-0.9c-0.3-0.8-0.5-2.9-0.2-3.5
	c0-0.1,0-0.1,0-0.2c0.1,0.1,0.2,0.1,0.4,0.2c0-0.1,0-0.1,0-0.2c-0.2-0.4-0.2-1.9,0-2.3c0.2-0.4-0.1-0.1,0.3-0.4c0,0.5-0.2,0.2,0,0.5
	c0-0.1,0-0.1,0-0.2c0.2-0.4-0.2-0.9-0.2-1.4c0-0.6,0.7-1.3,0.9-1.9c-0.4-0.1-0.3-0.1-0.5-0.3c0.9-1,0.1-3.3,1.6-3.7
	c-0.1-1.2,0-2.8,0.7-3.9c-0.2-1.9-0.3-4.3,1.1-5.3c0.1-0.1,0.1-0.1,0.2-0.2c0.1,0.4,0,0.3,0.2,0.5c0.3-0.4,0.3-0.3,0.9-0.5
	c0.5,1.4,1.7,1.6,1.9,3.9c-0.5,0.1-0.4,0.6-0.3,1.6c-0.5,0.6-1.2,4.3-1,5.2c-0.4,0.1-0.2-0.2-0.4,0.2c-0.3,0.4-0.8,3.1-0.7,3.2
	c0,0.1,0,0.1,0,0.2c0.1,0,0.1,0,0.2,0c0.1-0.7,0.2-0.7,0.4-1.2c0.4,0.1,0.2,0.2,0.5,0C132.7,16.1,136.4,12.2,137.5,12z"/>
<path class="st0" d="M40,5.9C40.1,7,40.8,7,40.7,8c-0.1,0.8-0.6,3.9-0.2,4.6c-0.2,0-0.4,0-0.5,0c0,0.4,0,0.7,0,1.1
	c0.1,0,0.2,0,0.4,0c0,0-0.2,1-0.2,1.2c-0.2,0-0.4,0-0.5,0c-0.2,0-0.1-0.1-0.2,0c0.5,0.8-0.2,1.9-0.2,3.2c0,1.7-1,5.3-0.9,8.3
	c-0.7,0.1-0.8,0.3-1.1,0.7c-0.2-0.1-1.2-0.3-1.4-0.5c-0.5-0.5,0.1-0.8-0.9-1c0.1-1.4,0-1.6-0.4-2.8c0.5-0.1,0.2,0.1,0.4-0.3
	c-0.2-0.3,0-2.7,0-3.7c0.5-0.1,0.2,0.1,0.4-0.4c-0.4-0.2-0.1,0.1-0.4-0.4c0.4-0.2,0.6-0.3,0.7-0.7c0-0.2-0.4-1.4-0.4-1.6
	c0.3-0.9,0.6-1.9,0.5-2.5c0-0.2,0-0.4,0-0.5c-0.1,0-0.2,0-0.4,0c0,0.1,0,0.1,0,0.2c-0.7,0.7-0.9,2.2-1.9,2.5c0,0.2,0,0.5,0,0.7
	c-0.1,0-0.1,0-0.2,0c-0.2-0.1,0-0.1-0.3-0.2c-0.1,0.7-0.2,0.9-0.5,1.1c-0.2,0.1-0.3,0.1-0.7,0.2c-0.1,0.4,0,0.3-0.2,0.5
	c0,0.1,0,0.1,0,0.2c-0.9,0.1-1.5-0.1-2.1,0c-0.2-0.7-1-1.3-1.6-1.9c-0.1,0.1-0.1,0.1-0.2,0.2c-0.3,0.6-0.3,1-0.5,1.8
	c0.1,0.2,0.1,0.4,0.2,0.5c-0.6,1.3-0.9,3.5-1.8,4.6c0,0,0.5,0.7,0.4,1.1c-0.2,0.5-0.5,0.7-0.5,1.8c-0.9,0.3-1.2,1.2-1.9,0.9
	c-1.1-0.2-1.5-1-2.1-1.6c0.2-3.6,2.6-8.6,3.5-12.4c0.2,0.1,0.4,0.1,0.5,0.2c-0.4-2.5,1.6-4.5,0.9-6.6c0.6,0,0.2,0.3,0.5-0.2
	c0.5-0.6-0.1-0.6,1.1-0.7c0.2-0.1,0.9,0,1.6,0c0.5,0.8,1.3,0.8,1.4,1.9c0.9,1.3,0.3,3.4,0.7,4.6c0.1-0.1,0.1-0.1,0.2-0.2
	c0.3-0.3,1-0.5,1.2-0.9c0-0.2,0-0.5,0-0.7c0.3-0.6,1-1.4,1.4-1.9l0.9-0.2c0.1-0.3,0.1-0.7,0.2-1.1C36,6.4,37,6.2,37.4,5.6
	c0.7,0.2,0.3,0.2,0.9,0c0.1-0.1,0.2-0.1,0.4-0.2C38.9,5.4,39.3,5.7,40,5.9z"/>
<path class="st0" d="M70.5,6.4c-0.1-1.3-0.3-1.4-0.4-2.6c-0.2,0-0.4,0-0.5,0c0-0.2,0-0.5,0-0.7c-0.5-0.1-0.9-0.1-1.4-0.2
	c-0.1-0.6-0.2-0.5-0.4-0.9c-0.7,0-1.3,0-1.6-0.2c-0.3,0.3-0.5,0.5-0.7,0.9c-0.7-0.3-0.8-1.1-1.4-1.6c-0.1-0.1-0.6,0.4-1.1,0.2
	c-0.4-0.2-0.3-0.3-0.5-0.5c0-0.1,0-0.1,0-0.2c-0.5,0.3-1,0.7-1.1,1.4c-0.1-0.2-0.1,0-0.2-0.3C60.9,2.1,61,1.9,61,2.5
	c-0.1-0.1-0.2-0.2-0.4-0.3c-0.3,0.7-0.6,1.5-1,2.1c-0.1,0.5-0.3-0.1-0.4-0.3c-0.1,0-0.1,0-0.2,0c0,1,0.1,2.4,0.5,3.2
	c0.2,0.1,0.4,0.1,0.5,0.2c0.1,0.7,0.1,1.4,0.2,2.1c0.6,0.9,1.7,1.5,1.9,2.8c1.1,0.3,1.5,1.7,2.5,1.8c0,0.3,0,0.6,0,0.9
	c0.6-0.2,1.1-0.6,1.4-1.1c0.4,0.2,0.4,0.2,0.5,0.7c0.4-0.3,0.4-0.5,0.4-1.2c0.2,0.1,0.3,0.1,0.5,0.2c0.2-0.4,0.4-0.8,0.7-1.1
	c0.2-0.1,0.2-0.1,0.5-0.2c0.1-0.9,0.5-1.9,1.1-2.5c0-0.1,0-0.1,0-0.2c0.1,0.1,0.2,0.1,0.4,0.2c0.3-0.8,0.6-1.6,1.1-2.3
	C71,6.3,71,6.4,70.5,6.4z M65.3,9.9c-0.1,0-0.1,0-0.2,0c-0.3-0.5-0.4-0.6-1.1-0.7c0-0.3,0-0.6,0-0.9c-0.2,0-0.4,0-0.5,0
	c-0.3-0.6-0.5-1.6-1.1-1.9c0-0.7,0-0.9,0.3-1.2c0.3,0.1,0.9,0.9,0.9,1.4c0.5-0.2,0.4-0.2,0.7-0.4c0.1,0.2,0.2,0.4,0.4,0.5
	c0.4-1.1,2-0.6,2.3-1.1c0.1,0,0.2,0,0.3,0C67.1,8.1,65.9,8,65.3,9.9z"/>
<path class="st0" d="M58.8,8.3c0,0.1,0,0.2,0,0.4c0.1,0,0.1,0,0.2,0c0-0.1,0-0.2,0-0.4C59,8.3,58.9,8.3,58.8,8.3z"/>
<path class="st0" d="M82.3,11c-0.1,0.1-0.1,0.2-0.2,0.4C82.4,11.1,82.3,11,82.3,11z"/>
<path class="st0" d="M126.2,14.7c0.1,1.1,0.1,1.7-0.2,2.1c-0.7,0.7-1.4,0.8-2.3,1.1c-0.2,0-0.5-0.4-0.9-0.2
	c-0.7,0.3-1.4,1.2-2.3,1.4c0,0.1,0,0.1,0,0.2c0.9,0.2,0,0.2,0.9,0.4c0.2,0.2,0.4,0.2,0.9,0.2c0,0.2,0,0.4,0,0.5
	c0.4,0.1,0.4,0.1,0.7,0.2c0.4,0.8,1.8,2.6,1.2,4.2c-0.2,0.5-0.7,0.9-0.9,1.6c-2.1,0.4-2.9,2.3-5,1.1c-0.2-0.2,0.1-0.2-0.2-0.5
	c-0.4,0.3-0.8,0.1-1.4,0c0-0.2,0-0.3,0-0.5c-0.3,0-0.8-0.5-1.1-1.1c0.2-0.2,0.2-0.3,0.4-0.5c0.5,0.3,0.5,0.2,1.4,0.2
	c0.1,0.4,0,0.3,0.2,0.5c0.1-0.1,1.2-0.6,2.1-0.7c0.4-0.7,0.7-1,0.7-2.3c-0.1-0.1-0.2-0.2-0.4-0.3c-0.3,0.1,0,0.2-0.2,0.4
	c-0.5,0-2.9-1.2-3.2-1.8c0-0.5,0-1.1,0-1.6c0.1-0.1,0.1-0.9,0.2-1.4c0.5-0.2,0.3-0.2,0.9-0.4c0.1,0.4,0,0.3,0.2,0.5
	c0.1-0.6,0.2-1.2,0.5-1.6c0.5,0.3,3.9-1.7,4.7-2.1C124.4,13.6,125.3,14.5,126.2,14.7z"/>
<path class="st0" d="M112,18.6c-0.5,2.4-3.3,5.5-3,8c-0.7,0.1-1.4,0.6-1.6,0.7c-0.1,0.3,0.1,0.3-0.7,0.4c-0.1,0.1-0.1,0.1-0.2,0.2
	c0-0.4,0-0.5-0.2-0.7c-0.3,0.1-1.6-0.6-1.8-1.1c0.5,0,0.1,0.1,0.5-0.2c0-0.1,0-0.2,0-0.4c-0.6,0-0.2,0.3-0.5-0.2
	c0.7-0.4,0.2-1.5,0.5-2.6c0.7-2.7,0.4-4.4,1.4-6.4c1.5-0.1,1.5,0.2,2.5,0.5c0.1-0.3,0.7-1.3,0.9-1.6c0.5,0.7,0.8-0.1,1.2-0.3
	c0.1,0.1,0.2,0.2,0.4,0.4c0.5-0.2,0.6-0.3,1.4-0.3c1,1,1.9,1.3,2.8,2.5c0.2-0.1,0.1-0.1,0.4-0.2c0.1,0.8,0.3,0.9,0.5,1.6
	c-0.5,0.2-0.4,0.2-0.5,0.7c-1,0-2.5,0.1-3-1.4C112.6,18.4,112.8,18.5,112,18.6z"/>
<path class="st0" d="M28,15.2c0.1,0.1,0.2,0.2,0.4,0.4C28.2,15.5,28.1,15.4,28,15.2z"/>
<path class="st0" d="M24.6,15.4c0.2,0.1,0,0.1,0.4,0.2C24.8,15.5,24.9,15.5,24.6,15.4z"/>
<path class="st0" d="M143.1,28.5c-0.3,0-0.6,0-0.9,0c0,0.5,0.1,0.1-0.2,0.5c-0.1,0-0.2,0-0.4,0c0.1-0.1,0.1-0.2,0.2-0.3
	c-0.1,0-0.1,0-0.2,0c-0.2,0.1-0.3,0.1-0.7,0.2c0-0.5,0.1-0.6,0.2-0.9c-0.7,0-0.5,0.1-1.1,0c0-0.8-0.4-1.4-0.7-2.3
	c-0.1-0.3-0.2-2.3,0-3.2c0.3-1.2,0.6-5,1.9-6.6c0.2-0.2,0.5-0.4,0.7-0.5c0.2,0.1,1.3,0.3,1.9,0.4c0.2,0.6,0.3,1.2,0.5,1.4
	c0.1,0,0.2,0,0.4,0c0.1,0.1-0.3,1.9-0.4,2.5c-0.5,0.1-0.3-0.1-0.3,0.7c-0.1,0.5-0.8,2.4-1,3.3C142.6,25.2,143.1,26.7,143.1,28.5z"/>
<path class="st0" d="M113.2,15.6c0.2,0.1,0,0.1,0.4,0.2C113.4,15.6,113.5,15.7,113.2,15.6z"/>
<path class="st0" d="M63.7,15.8c0.1,0.3,0.1,0.6,0.2,0.9c0.1,0,0.2,0,0.4,0c0-0.1,0-0.2,0-0.4c0.1,0,0.2,0,0.4,0c0,0.1,0,0.1,0,0.2
	c1.9,2.3,0.6,6.3,0.5,9.5c-0.9,0.1-1.3,0.5-1.8,1.2c-0.4-0.4-0.3-0.4-1.1-0.5c-0.1-0.8-0.6-1.8-0.7-2.8c-0.1-0.5,0.3-1.8,0.4-2.3
	c0.3-1.5,0-3.8-0.2-5c0.4-0.2,0.5-0.4,0.7-0.7C63.2,16.2,62.8,16,63.7,15.8z"/>
<path class="st0" d="M72.1,15.8c0,0.1,0,0.2,0,0.4c0.1,0,0.1,0,0.2,0c0-0.1,0-0.2,0-0.3C72.2,15.8,72.1,15.8,72.1,15.8z"/>
<path class="st0" d="M110.1,15.9c-0.1,0.1-0.1,0.2-0.2,0.4C110.2,16.1,110.1,15.9,110.1,15.9z"/>
<path class="st0" d="M59.9,10.3c-0.3-0.9-0.8-3-1.4-3.7c-0.6-0.6-1.6-1-2.1-1.8c0-0.2,0-0.4,0-0.5c-0.1,0-0.1,0-0.2,0
	c-0.1,0.1-0.1,0.1-0.2,0.2c0-0.1,0-0.1,0-0.2c-0.1,0-0.1,0-0.2,0C54.8,4,54.7,3.6,54,3.2c-0.3-0.2-0.7,0.2-0.9,0.2
	c-0.2-0.2-0.4-0.3-0.9-0.5c-0.4,0.8-0.5,1.2-0.4,2.3c-0.6,0.1-0.4,0.2-1.1,0.4c0-0.2,0-0.4,0-0.5c-0.4,0.2-0.6,0.5-1.1,0.7
	c-0.3,1.3-0.8,4.2-0.3,4.8c-0.1,0.7,0,0.5-0.5,0.5c0.1,0.5,0.3,0.8,0.4,1.1c0.1,0.7-0.6,0.9,0,1.4c0-0.1,0-0.2,0-0.3
	c0.1,0,0.1,0,0.2,0c0,0.1,0,0.2,0,0.4h-0.1l0.1,0.1c-0.1,0.5,0.1,0.3-0.4,0.4c-0.1,1-0.5,3.7,0,4.2c0,0.2,0,0.5,0,0.7
	c-0.1-0.2-0.1,0-0.2-0.3c-0.1,0-0.2,0-0.3,0c0.2,1.2,0.2,3-0.5,3.5c0.2,0.1,0.2,0.1,0.5,0.2c-0.2,0.4-0.2,0.5-0.2,0.7
	c-0.1,0.6,0.1,0.5-0.4,0.5c0.1,0.8,0.2,1-0.2,1.6c0,0,0,0.4,0.1,0.4c-0.1,0-0.2,0-0.4,0.1c0.2,0.1,0.2,0.1,0.5,0.2
	c-0.3,0.7-0.1,0.7-0.2,1.2c0.4,0.2,0.5,0.2,0.7,0.7c0.1-0.1,0.2-0.2,0.4-0.4c0.1,0,0.2,0,0.4,0c0.1,0.6,0.1,0.5,0,1.1
	c0.6-0.4,0.4-0.5,1.2-0.3c0.2-0.2,0-0.4,0.2-0.5s0.2-0.1,0.5-0.2c0.1-1.1,0.3-1.5,0.2-2.3c0,0-0.4-0.4-0.4-0.5
	c0.1-0.1,0.7-0.3,0.7-0.3c0.6-1.1-0.5-2.2,0.7-3c-0.1-0.1-0.2-0.2-0.3-0.3c0-0.1,0-0.1,0-0.2c0.1,0.1,0.2,0.1,0.3,0.2
	c0-0.5-0.1-0.3,0-0.5c0-0.5,0-1.1,0-1.6c0.4,0.4,0.4,0.4,0.9,0.9c0.5,0.2,0.5-0.4,0.7,0.2c1.2-1.2,4.4-1.7,4.7-3.9
	C60.1,15.4,60.5,12,59.9,10.3z M48,25.2C48,25.2,48,25.2,48,25.2c0.1-0.2,0.1-0.2,0.2-0.3C48.1,25.1,48.1,25.2,48,25.2z M53.1,18.8
	c0.1,0,0.2,0,0.4,0C53.3,19.1,53.4,18.9,53.1,18.8z M55.1,15.6c-0.6-0.1-1.6,0.5-2.1,1.1c-0.1,0-0.2,0-0.4,0
	c0.2-2.7,1.6-9.2,0.5-10.1c0-0.1,0-0.1,0-0.2c0.8,0.2,0.7,0.5,1.6,0.7c0,0.2,0,0.4,0,0.5c0.2,0,0.4,0,0.5,0c0.2,0.8,0.7,0.9,0.9,1.4
	C56,9.3,56,9.6,55.9,9.9c0.1,0.4,0.5,0.8,0.5,0.9C57,12.3,55.3,14.3,55.1,15.6z"/>
<path class="st0" d="M42.3,24.4c-0.2-1.2-1.2-2.2-0.2-2.8c0.1,0.1,0.1,0.1,0.2,0.2c0-0.1,0-0.1,0-0.2c-0.1-0.3,0-0.7,0.4-1
	c0.6,0.2,0.1,0,0.5-0.3c0.1,0.1,0.1,0.1,0.2,0.2c0,0.1,0.7,0.2,1.2,0.2c0.2,0.6,0.6,1,1.1,1.4c-0.1,1-0.1,1.5,0,2.3
	c-0.6,0.1-1.2,0.5-1.6,0.9C43.6,24.8,43.2,24.5,42.3,24.4z"/>
<path class="st0" d="M35.4,20.7c0.2,0.1,0,0.1,0.4,0.2C35.5,20.7,35.7,20.8,35.4,20.7z"/>
<path class="st0" d="M77,23c-1.1,0.1-2.3,0.9-3.2,0.7c-0.7-0.1-1-0.7-1.8-0.5c0.1-0.4,0.1-0.1,0-0.5c0.5-0.2,0.4-0.2,0.7-0.5
	c0.3,0.2,0.6,0.4,1.1,0c0.4-0.3,0.3-0.7,0.9-0.9c0.7,0.2,2.2-0.1,3-0.7c0.3-0.5,0.6-1,0.9-1.6c-0.1-0.7-0.3-1.8-0.7-2.3
	c-0.7-1-3.5-1.5-4.4-2.1c-0.5,1-1.7,0.8-2.6,1.4c-0.3,0.2-0.3,0.8-0.5,1.1c-1.6,2.1-2.9,4.2-1.2,6.9c0.3,0.5,0,0.8,0.5,1.1
	c0.2,0.3,0,0.2,0.4,0.2c0.4,0.3,0.2,0,0.4,0.5c0.7,0.1,0.6,0.3,1.1,0.2c0.1,0,0.1,0,0.2,0c0.1,0.2,0.1,0.4,0.2,0.5
	c0.3,0.2,1.1-0.2,1.8,0.2c0,0-0.1,0.6,0.2,0.4c0.7-0.8,1.7-0.3,2.6-0.9c0.2-0.1,0.2-0.6,0.4-0.7c0.4-0.2,0.9,0,1.1,0
	c0.1-0.5,0.2-0.4,0.3-0.9c-0.3-0.2-0.2-0.1-0.3-0.2C77.4,24.1,77.2,23.3,77,23z M72.1,19.3c0.2-0.2,0.2-0.6,0.4-0.9
	c0.4-0.6,1.2-0.9,1.6-1.4c0.7,0.1,1.6,0.1,1.9,0.7c0.1,0.1,0.1,0.1,0.2,0.2c-0.1,0-0.1,0-0.2,0c-0.5,1.1-2.3,1.2-3.2,1.9
	c-0.4-0.1-0.3,0-0.5-0.2C72.1,19.4,72.2,19.6,72.1,19.3z"/>
<path class="st0" d="M110.2,20.9c0,0.1,0,0.2,0,0.4c0.1,0,0.1,0,0.2,0c0-0.1,0-0.2,0-0.4C110.4,20.9,110.3,20.9,110.2,20.9z"/>
<path class="st0" d="M109.2,23.7c0.2,0.1,0,0.1,0.4,0.2C109.4,23.7,109.5,23.8,109.2,23.7z"/>
<path d="M103.3,25.1c0.1-0.1,0.2-0.2,0.4-0.3c0.1-0.1-0.3-0.6-0.3-1.2c-0.1,0.2-0.1,0.2-0.2,0.5c-0.3,0.2-0.1,0,0,0.4
	c-0.1,0-0.1,0-0.2,0c-0.5-0.2-0.5-1-1.4-0.9c0.8-2.2,0.9-6.5-0.4-8.1c-0.3-0.3-1.6-0.8-2.1-0.2c-0.1-0.2-0.1-0.2-0.2-0.5
	c-0.8,0.7-1,0.2-2.1,0.9c-1.4,0.9-2.2,2.7-3.5,4c-0.2,0.2-0.7,0.3-0.9,0.5c-0.3,0.3-0.4,1.6-0.5,1.9c-0.3-0.2-0.6-0.4-0.9-0.5
	c-0.2,0.4-0.3,0.3-0.3,0.9c-0.2-0.1-0.1-0.1-0.2-0.2c-0.3-0.6-1.6-1-1.9-0.5c-0.2-0.2-0.2-0.4-0.2-0.9c-0.5,0.1-0.3,0.1-0.9,0
	c0.4-1.4,1.6-2.1,1.8-3.7c0.1,0.1,0.2,0.2,0.3,0.4c0.9-1.2,0.9-3,2.5-3.5c-0.3-0.5-0.6-1.1-0.7-1.8c-0.5,0-0.3-0.1-0.5,0
	c-0.4-0.3-0.3-0.1-0.4-0.7c-0.1,0.2-0.1,0.2-0.2,0.5c-0.5,0-1.6,0.2-1.6,0.2c-0.5,0.3-0.7,0.8-0.7,1.6c-0.4-0.1-0.4-0.1-0.7-0.2
	c-0.7,1.1-2,2.7-2.6,4.2c-0.1,0-0.2,0-0.4,0c0.2-0.8,0.3-2.6,0.5-3.3c0.3-0.9,0.9-1.8,0.9-2.6c0-0.7-0.1-2.9,0.2-3.3
	c-0.1-1.1-1.1-1.7-1.8-2.3c0-0.1,0-0.1,0-0.2c-0.1,0.2-0.1,0.2-0.2,0.5c-0.7,0-1.3,0.2-1.8,0.5c-0.4,0.4-0.4,1.1-0.9,1.4
	c0.2,0.3,0.4,0.7,0.7,0.9c-0.9,2-0.9,4.4-1.4,6.7c0.1,0.3,0.1,0.6,0.2,0.9c-0.4,1-0.8,3.3-0.7,4.2c0.3,1.8-0.6,3.4,0.3,4.6
	c0.4,0.3,0.7,0.1,1.1,0.9c0.3-0.1,0.6-0.3,0.9-0.5c0.2,0.3,0,0.3,0.2,0.5c0.2,0.2,0.5-0.1,0.7-0.3c0.1-0.1,0.1-0.1,0.2-0.2
	c-0.1,0-0.1,0-0.2,0c0.3-0.4,0-0.2,0.5-0.4c0-0.9-0.3-1-0.4-1.2c-0.2-0.8,0.3-1.9,0.4-2.6c1.2,0.7,6.7,4.4,7.8,1.8
	c0.5,0.3,0.2,0,0.2,0.5c1.2,0.5,2.2,1.6,3.5,0.5c1.3,0,1.4,0.1,1.6-0.9c0.1,0,0.2,0,0.4,0c0.3-0.1-0.4-0.2-0.4-0.2
	c0.5-0.4,0.5-0.6,1.2-0.7c0,1.3,0.6,1.5,0.7,2.8c1,0.1,0.5,0.1,0.9,0.5c0.1,0.1,0.8,0.5,1.2,0.4c0.1,0,0.1,0,0.2,0
	c-0.1,0.1-0.1,0.2-0.2,0.4c0.1,0,0.1,0,0.2,0c0.4,0.4,1.7-0.9,2.5-1.1c0.1-0.3,0.1-0.6,0.2-0.9C103.7,25.1,103.5,25.1,103.3,25.1z
	 M96.8,21.4c-0.5,0-0.9-0.1-1.2-0.2c0.1-1.9,1.1-2.2,2.1-3.2c0.5,0,0.9,0,1.4,0c0.1,0.1,0.1,0.1,0.2,0.2
	C98.9,19.9,97.8,20.4,96.8,21.4z"/>
<path class="st0" d="M35.5,24.6c0,0.1,0,0.2,0,0.4c0.1,0,0.1,0,0.2,0c0-0.1,0-0.2,0-0.3C35.7,24.6,35.6,24.6,35.5,24.6z"/>
<path class="st0" d="M83.2,24.6c0,0.1,0,0.2,0,0.4c0.1,0,0.1,0,0.2,0c0-0.1,0-0.2,0-0.3C83.3,24.6,83.2,24.6,83.2,24.6z"/>
<path class="st0" d="M127.4,25.3c0.1,0.6-0.1,0.3,0.4,0.5c0-0.1,0-0.1,0-0.2C127.6,25.6,127.5,25.4,127.4,25.3z"/>
<path class="st0" d="M3.3,13.4c0,0.1,0,0.2,0,0.3c0.1,0,0.1,0,0.2,0c0-0.1,0-0.2,0-0.3C3.4,13.4,3.4,13.4,3.3,13.4z"/>
<path class="st0" d="M18,22.7c0.7,0.1,0.8,0.2,1.2,0.4c0.5,1,1.1,0.8,1.2,1.8c0.3,0.5-0.1,1.1-0.3,1.6c-0.7,0.3-1,0.5-2.1,0.5
	c-0.4-0.6-0.6-0.7-1.4-0.9c-0.1-1-0.4-1.1-0.5-2.1c0.2-0.2,0.2-0.3,0.4-0.7C17,23.3,17.5,23.2,18,22.7z"/>
</svg>
