<?xml version="1.0" encoding="utf-8"?>
<!-- Generator: Adobe Illustrator 24.2.3, SVG Export Plug-In . SVG Version: 6.00 Build 0)  -->
<svg version="1.1" id="logo" xmlns="http://www.w3.org/2000/svg" xmlns:xlink="http://www.w3.org/1999/xlink" x="0px" y="0px"
	 viewBox="0 0 192 192" style="enable-background:new 0 0 192 192;" xml:space="preserve">
<style type="text/css">
	.st0{fill:#070405;}
</style>
<g>
	<path class="st0" d="M27.6,89.4c0.6,0,0.9,0,1.4,0c0.6-2,0.6-2,2.6-2.6c0.3-2.9,11.2-17.3,13.5-19.6c0.6,0.9,2.3,0.6,5.5,0.6
		c0,2,0.3,2,2,3.5c-0.9,2-4.3,8.6-6,9.5c-0.6,0-0.3-0.3-0.6,0c-1.2,1.4-1.7,4.3-3.2,5.5c-0.6-0.3-1.2-0.3-1.4-0.6
		c-0.9,0.9-4.3,6.6-4.6,8.6c-0.6,0-1.4,0-2,0c-0.6,3.2-2.3,4-3.2,7.5c3.2,2.3,7.8,6.9,8.6,11.5c0.6,0,1.2,0,1.4,0
		c2,3.5,5.2,6.6,6.6,10.7c-0.6,0.9-0.9,2-1.2,3.2c-1.7,0-2.3,0.3-4.6,0c0,1.4-4-0.6-6.3-3.7c-2-2.9-2.6-6.3-4.6-9.2
		c-1.7-2.3-4.3-3.5-5.5-6.6c-0.9,0.6-0.3,0.6-1.4,0.9c-1.4-3.5-4.3-1.2-4.6-6.6c-0.3,0-0.3,0-0.6,0c0,6,0.3,15.3-1.2,21.3
		c-0.9,0.6-1.4,0.6-2,1.4c-2.3-0.3-4-0.9-6,0c-0.9-11.5,1.2-30.8,3.7-42.9c-1.2-0.6-0.3,0.3-1.2-0.9c2-1.4,0.9-6.6,1.2-9.5
		c0.3-3.5-0.6-10.4,4-11.5c1.2,1.2,2,0.6,4,1.2c0.6,1.7,1.7,2,2,3.2c0,2.9,0,5.8,0,8.6c-1.4,2-0.9,6-0.6,8.1
		c-2,5.5-2.3,13.2-2.6,19.3c0.3,0,0.6,0,1.2,0C23,95.4,26.7,94,27.6,89.4z"/>
	<path class="st0" d="M122.6,67.8c0.3,3.2,2.3,3.2,2,6c-0.3,2.3-1.7,11.2-0.6,13.2c-0.6,0-1.2,0-1.4,0c0,1.2,0,2,0,3.2
		c0.3,0,0.6,0,1.2,0c0,0-0.6,2.9-0.6,3.5c-0.6,0-1.2,0-1.4,0c-0.6,0-0.3-0.3-0.6,0c1.4,2.3-0.6,5.5-0.6,9.2c0,4.9-2.9,15.5-2.6,24.2
		c-2,0.3-2.3,0.9-3.2,2c-0.6-0.3-3.5-0.9-4-1.4c-1.4-1.4,0.3-2.3-2.6-2.9c0.3-4,0-4.6-1.2-8.1c1.4-0.3,0.6,0.3,1.2-0.9
		c-0.6-0.9,0-7.8,0-10.7c1.4-0.3,0.6,0.3,1.2-1.2c-1.2-0.6-0.3,0.3-1.2-1.2c1.2-0.6,1.7-0.9,2-2c0-0.6-1.2-4-1.2-4.6
		c0.9-2.6,1.7-5.5,1.4-7.2c0-0.6,0-1.2,0-1.4c-0.3,0-0.6,0-1.2,0c0,0.3,0,0.3,0,0.6c-2,2-2.6,6.3-5.5,7.2c0,0.6,0,1.4,0,2
		c-0.3,0-0.3,0-0.6,0c-0.6-0.3,0-0.3-0.9-0.6c-0.3,2-0.6,2.6-1.4,3.2c-0.6,0.3-0.9,0.3-2,0.6c-0.3,1.2,0,0.9-0.6,1.4
		c0,0.3,0,0.3,0,0.6c-2.6,0.3-4.3-0.3-6,0c-0.6-2-2.9-3.7-4.6-5.5c-0.3,0.3-0.3,0.3-0.6,0.6c-0.9,1.7-0.9,2.9-1.4,5.2
		c0.3,0.6,0.3,1.2,0.6,1.4c-1.7,3.7-2.6,10.1-5.2,13.2c0,0,1.4,2,1.2,3.2c-0.6,1.4-1.4,2-1.4,5.2c-2.6,0.9-3.5,3.5-5.5,2.6
		c-3.2-0.6-4.3-2.9-6-4.6c0.6-10.4,7.5-25,10.1-36c0.6,0.3,1.2,0.3,1.4,0.6c-1.2-7.2,4.6-13,2.6-19.3c1.7,0,0.6,0.9,1.4-0.6
		c1.4-1.7-0.3-1.7,3.2-2c0.6-0.3,2.6,0,4.6,0c1.4,2.3,3.7,2.3,4,5.5c2.6,3.7,0.9,9.8,2,13.2c0.3-0.3,0.3-0.3,0.6-0.6
		c0.9-0.9,2.9-1.4,3.5-2.6c0-0.6,0-1.4,0-2c0.9-1.7,2.9-4,4-5.5l2.6-0.6c0.3-0.9,0.3-2,0.6-3.2c0.9-1.7,3.7-2.3,5.2-4
		c2,0.6,0.9,0.6,2.6,0c0.3-0.3,0.6-0.3,1.2-0.6C119.4,66.4,120.6,67.2,122.6,67.8z"/>
	<path class="st0" d="M177.3,74.7c0,0.3,0,0.6,0,1.2c0.3,0,0.3,0,0.6,0c0-0.3,0-0.6,0-1.2C177.9,74.7,177.6,74.7,177.3,74.7z"/>
	<path class="st0" d="M87.8,94.8c0.3,0.3,0.6,0.6,1.2,1.2C88.3,95.7,88.1,95.4,87.8,94.8z"/>
	<path class="st0" d="M77.7,95.4c0.6,0.3,0,0.3,1.2,0.6C78.3,95.7,78.6,95.7,77.7,95.4z"/>
	<path class="st0" d="M180.4,80.5c-0.9-2.6-2.3-8.6-4-10.7c-1.7-1.7-4.6-2.9-6-5.2c0-0.6,0-1.2,0-1.4c-0.3,0-0.3,0-0.6,0
		c-0.3,0.3-0.3,0.3-0.6,0.6c0-0.3,0-0.3,0-0.6c-0.3,0-0.3,0-0.6,0c-3.2-1.2-3.5-2.3-5.5-3.5c-0.9-0.6-2,0.6-2.6,0.6
		c-0.6-0.6-1.2-0.9-2.6-1.4c-1.2,2.3-1.4,3.5-1.2,6.6c-1.7,0.3-1.2,0.6-3.2,1.2c0-0.6,0-1.2,0-1.4c-1.2,0.6-1.7,1.4-3.2,2
		c-0.9,3.7-2.3,12.1-0.9,14.1c-0.3,2,0,1.4-1.4,1.4c0.3,1.4,0.9,2.3,1.2,3.2c0.3,2-1.7,2.6,0,4c0-0.3,0-0.6,0-0.9c0.3,0,0.3,0,0.6,0
		c0,0.3,0,0.6,0,1.2h-0.3l0.3,0.3c-0.3,1.4,0.3,0.9-1.2,1.2c-0.3,2.9-1.4,10.7,0,12.1c0,0.6,0,1.4,0,2c-0.3-0.6-0.3,0-0.6-0.9
		c-0.3,0-0.6,0-0.9,0c0.6,3.5,0.6,8.6-1.4,10.1c0.6,0.3,0.6,0.3,1.4,0.6c-0.6,1.2-0.6,1.4-0.6,2c-0.3,1.7,0.3,1.4-1.2,1.4
		c0.3,2.3,0.6,2.9-0.6,4.6c0,0,0,1.2,0.3,1.2c-0.3,0-0.6,0-1.2,0.3c0.6,0.3,0.6,0.3,1.4,0.6c-0.9,2-0.3,2-0.6,3.5
		c1.2,0.6,1.4,0.6,2,2c0.3-0.3,0.6-0.6,1.2-1.2c0.3,0,0.6,0,1.2,0c0.3,1.7,0.3,1.4,0,3.2c1.7-1.2,1.2-1.4,3.5-0.9
		c0.6-0.6,0-1.2,0.6-1.4c0.6-0.3,0.6-0.3,1.4-0.6c0.3-3.2,0.9-4.3,0.6-6.6c0,0-1.2-1.2-1.2-1.4c0.3-0.3,2-0.9,2-0.9
		c1.7-3.2-1.4-6.3,2-8.6c-0.3-0.3-0.6-0.6-0.9-0.9c0-0.3,0-0.3,0-0.6c0.3,0.3,0.6,0.3,0.9,0.6c0-1.4-0.3-0.9,0-1.4
		c0-1.4,0-3.2,0-4.6c1.2,1.2,1.2,1.2,2.6,2.6c1.4,0.6,1.4-1.2,2,0.6c3.5-3.5,12.7-4.9,13.5-11.2C181,95.4,182.2,85.3,180.4,80.5z
		 M145.9,123.9c0,0,0,0,0-0.3c0.3-0.3,0.3-0.3,0.6-0.6C146.2,123.6,146.2,123.9,145.9,123.9z M160.6,105.2c0.3,0,0.6,0,1.2,0
		C161.2,106.1,161.5,105.5,160.6,105.2z M166.3,96c-1.7-0.3-4.6,1.4-6,3.2c-0.3,0-0.6,0-1.2,0c0.6-7.8,4.6-26.8,1.4-29.4
		c0-0.3,0-0.3,0-0.6c2.3,0.6,2,1.4,4.6,2c0,0.6,0,1.2,0,1.4c0.6,0,1.2,0,1.4,0c0.6,2.3,2,2.6,2.6,4c-0.3,0.9-0.3,1.7-0.6,2.6
		c0.3,1.2,1.4,2.3,1.4,2.6C172.1,86.2,166.9,92,166.3,96z"/>
	<path class="st0" d="M129.2,121.6c-0.6-3.5-3.5-6.3-0.6-8.1c0.3,0.3,0.3,0.3,0.6,0.6c0-0.3,0-0.3,0-0.6c-0.3-0.9,0-2,1.2-2.9
		c1.7,0.6,0.3,0,1.4-0.9c0.3,0.3,0.3,0.3,0.6,0.6c0,0.3,2,0.6,3.5,0.6c0.6,1.7,1.7,2.9,3.2,4c-0.3,2.9-0.3,4.3,0,6.6
		c-1.7,0.3-3.5,1.4-4.6,2.6C133,122.8,131.8,121.9,129.2,121.6z"/>
	<path class="st0" d="M109.1,110.7c0.6,0.3,0,0.3,1.2,0.6C109.4,110.7,109.9,111,109.1,110.7z"/>
	<path class="st0" d="M109.4,122.2c0,0.3,0,0.6,0,1.2c0.3,0,0.3,0,0.6,0c0-0.3,0-0.6,0-0.9S109.6,122.2,109.4,122.2z"/>
	<path class="st0" d="M15.8,89.4c0,0.3,0,0.6,0,0.9c0.3,0,0.3,0,0.6,0c0-0.3,0-0.6,0-0.9C16.1,89.4,16.1,89.4,15.8,89.4z"/>
	<path class="st0" d="M58.4,116.4c2,0.3,2.3,0.6,3.5,1.2c1.4,2.9,3.2,2.3,3.5,5.2c0.9,1.4-0.3,3.2-0.9,4.6c-2,0.9-2.9,1.4-6,1.4
		c-1.2-1.7-1.7-2-4-2.6c-0.3-2.9-1.2-3.2-1.4-6c0.6-0.6,0.6-0.9,1.2-2C55.5,118.2,57,117.9,58.4,116.4z"/>
	<path class="st0" d="M170.4,128.7c0.7-3.4,0-8.1,3.3-8.7c0.2,0.4,0.3-0.7,1.7-1.1c1.7-0.3,0.3,0.1,1.7-0.3c0.2,0.4,2,1,2.1,1.4
		c-0.1,0.3-0.1,0.6,1.2,1.1c0.7,1,1.7,2.9,1.5,4.9c-0.7,3.2-1.9,3.7-2.8,5.5c-1.7-0.3-2.7,0.7-4.5,0
		C172.4,130.6,172.7,129.8,170.4,128.7z"/>
</g>
</svg>
